<svg width="180" height="80" viewBox="0 0 180 80" fill="none" xmlns="http://www.w3.org/2000/svg">
<g clip-path="url(#clip0_4346_20350)">
<path d="M73.8822 32.4736H62.5947V35.0825H66.6423V45.7399H69.8917V35.0825H73.9393V32.4736H73.8822ZM83.6306 45.7399H87.051L81.4072 32.4736H78.3859L72.6851 45.7399H76.1625L77.0746 43.5197H82.8324L83.6306 45.7399ZM78.0438 40.9108L79.9251 36.3592L81.7493 40.9108H78.0438ZM96.7993 45.7399H100.562L97.0844 40.5222C98.5096 39.8006 99.4217 38.4684 99.4217 36.8032C99.4217 34.1944 97.4834 32.4736 94.576 32.4736H88.4761V45.7399H91.7255V41.1327H93.8918L96.7993 45.7399ZM91.7255 35.0825H94.2339C95.3741 35.0825 96.1152 35.8041 96.1152 36.8032C96.1152 37.8023 95.2601 38.5239 93.9489 38.5239H91.7826V35.0825H91.7255ZM111.906 32.4736H100.619V35.0825H104.666V45.7399H107.916V35.0825H111.963V32.4736H111.906ZM116.923 43.131V40.3002H122.738V37.7468H116.923V35.0825H123.365V32.4736H113.673V45.7399H123.536V43.131H116.923ZM129.123 43.131V40.3002H134.937V37.7468H129.123V35.0825H135.564V32.4736H125.873V45.7399H135.736V43.131H129.123ZM141.322 43.131V32.4736H138.073V45.7399H147.08V43.131H141.322ZM163.099 45.7399H164.581L158.595 32.4736H157.284L151.299 45.7399H152.781L154.32 42.2985H161.503L163.099 45.7399ZM154.833 41.1327L157.968 34.1389L161.046 41.1327H154.833ZM166.463 45.7399H167.888V32.4736H166.463V45.7399Z" fill="black"/>
<path fill-rule="evenodd" clip-rule="evenodd" d="M39.4817 35.1805C38.1902 36.4699 37.555 37.1041 36.7505 37.1041C35.9459 37.1041 35.3108 36.4593 34.0192 35.1805L27.7522 28.9236C26.4608 27.6447 25.815 27 25.021 27C24.227 27 23.5813 27.6447 22.2898 28.9236L13.9267 37.2732C12.6458 38.5626 12 39.2073 12 40C12 40.7927 12.6458 41.4374 13.9267 42.7269L22.2898 51.0764C23.5813 52.3659 24.2164 53 25.021 53C25.8255 53 26.4608 52.3553 27.7522 51.0764L34.0192 44.8196C35.3108 43.5301 35.9459 42.896 36.7505 42.896C37.5444 42.896 38.1902 43.5407 39.4817 44.8196L41.3766 46.7114C42.6682 48.0007 43.3033 48.635 44.1079 48.635C44.9123 48.635 45.5476 47.9902 46.8392 46.7114L50.8301 42.7269C52.1217 41.4374 52.7568 40.8033 52.7568 40C52.7568 39.1968 52.111 38.5626 50.8301 37.2732L46.8392 33.2886C45.5476 31.9992 44.9123 31.365 44.1079 31.365C43.3033 31.365 42.6682 32.0098 41.3766 33.2886L39.4817 35.1805Z" fill="url(#paint0_linear_4346_20350)" fill-opacity="0.8"/>
</g>
<defs>
<linearGradient id="paint0_linear_4346_20350" x1="28.8742" y1="31.1175" x2="24.6777" y2="53.1142" gradientUnits="userSpaceOnUse">
<stop/>
<stop offset="1" stop-color="#808080"/>
</linearGradient>
<clipPath id="clip0_4346_20350">
<rect width="156" height="26" fill="white" transform="translate(12 27)"/>
</clipPath>
</defs>
</svg>
