<svg width="180" height="80" viewBox="0 0 180 80" fill="none" xmlns="http://www.w3.org/2000/svg">
<g clip-path="url(#clip0_4346_20347)">
<path d="M51.2236 51.2499H46.7686V30.2H51.2236V51.2499ZM49.6643 51.2499V50.855H59.2743V51.2499H49.6643ZM72.1449 45.5394H76.3453C76.0059 46.7341 75.4225 47.7871 74.5951 48.6984C73.7678 49.6096 72.7601 50.3184 71.5721 50.8246C70.4053 51.3106 69.1112 51.5536 67.6899 51.5536C65.9715 51.5536 64.4335 51.1993 63.0758 50.4905C61.7181 49.7818 60.6467 48.7996 59.8618 47.5441C59.0769 46.2684 58.6844 44.8205 58.6844 43.2005C58.6844 41.5603 59.0769 40.1124 59.8618 38.8569C60.6467 37.6014 61.7181 36.6193 63.0758 35.9105C64.4335 35.2018 65.9715 34.8474 67.6899 34.8474C69.09 34.8474 70.3735 35.0904 71.5403 35.5764C72.7283 36.0624 73.736 36.7509 74.5633 37.6419C75.3907 38.5126 75.9741 39.5454 76.3135 40.7401H72.1131C71.9858 39.8694 71.7418 39.0189 71.3812 38.1886C71.0417 37.3381 70.5644 36.6395 69.9492 36.0928C69.3552 35.5258 68.6021 35.2423 67.6899 35.2423C66.7989 35.2423 66.0034 35.546 65.3033 36.1535C64.6244 36.7408 64.0835 37.6216 63.6804 38.7961C63.2985 39.9706 63.1076 41.4388 63.1076 43.2005C63.1076 44.78 63.2773 46.1671 63.6168 47.3619C63.9774 48.5566 64.4971 49.4881 65.176 50.1564C65.8761 50.8246 66.714 51.1588 67.6899 51.1588C68.8143 51.1588 69.7689 50.693 70.5538 49.7615C71.36 48.8098 71.8903 47.4024 72.1449 45.5394ZM60.3073 40.7401V40.3453H75.0088V40.7401H60.3073ZM77.1123 35.1511H81.5354L90.3818 51.2499H85.9586L77.1123 35.1511ZM83.3493 43.079L83.6675 43.4739L78.3851 51.2499H77.8441L83.3493 43.079ZM84.1448 43.4739L83.8266 43.079L89.2044 35.1511H89.7454L84.1448 43.4739ZM97.3967 51.2499H93.1008V35.1511H97.3967V51.2499ZM95.2647 32.7211C94.5646 32.7211 93.9812 32.4984 93.5145 32.0529C93.069 31.6074 92.8463 31.0606 92.8463 30.4126C92.8463 29.7646 93.069 29.228 93.5145 28.8028C93.9812 28.3573 94.5646 28.1345 95.2647 28.1345C95.9436 28.1345 96.5057 28.3573 96.9512 28.8028C97.4179 29.228 97.6513 29.7646 97.6513 30.4126C97.6513 31.0606 97.4179 31.6074 96.9512 32.0529C96.5057 32.4984 95.9436 32.7211 95.2647 32.7211ZM113.473 45.6305H117.674C117.334 46.805 116.751 47.8378 115.923 48.7288C115.117 49.6198 114.131 50.3184 112.964 50.8246C111.797 51.3106 110.514 51.5536 109.114 51.5536C107.395 51.5536 105.857 51.1993 104.5 50.4905C103.142 49.7818 102.071 48.7996 101.286 47.5441C100.501 46.2684 100.108 44.8205 100.108 43.2005C100.108 41.5603 100.501 40.1124 101.286 38.8569C102.071 37.6014 103.142 36.6193 104.5 35.9105C105.857 35.2018 107.395 34.8474 109.114 34.8474C110.514 34.8474 111.797 35.0904 112.964 35.5764C114.131 36.0624 115.117 36.7509 115.923 37.6419C116.751 38.5126 117.334 39.5454 117.674 40.7401H113.473C113.346 39.8491 113.113 38.9885 112.773 38.1583C112.434 37.3078 111.967 36.6091 111.373 36.0624C110.779 35.5156 110.026 35.2423 109.114 35.2423C108.223 35.2423 107.427 35.546 106.727 36.1535C106.048 36.7408 105.507 37.6216 105.104 38.7961C104.722 39.9706 104.531 41.4388 104.531 43.2005C104.531 44.78 104.701 46.1671 105.041 47.3619C105.401 48.5566 105.921 49.4881 106.6 50.1564C107.3 50.8246 108.138 51.1588 109.114 51.1588C109.941 51.1588 110.652 50.9158 111.246 50.4298C111.84 49.9235 112.328 49.2553 112.71 48.425C113.091 47.5948 113.346 46.6633 113.473 45.6305ZM133.439 51.2499H129.144V48.7895V46.724V44.6585V38.948C129.144 37.5305 128.921 36.5585 128.475 36.032C128.03 35.5055 127.468 35.2423 126.789 35.2423C126.365 35.2423 125.972 35.3638 125.611 35.6068C125.251 35.8498 124.965 36.2548 124.752 36.8218C124.54 37.3685 124.434 38.1279 124.434 39.0999C124.434 39.3024 124.434 39.515 124.434 39.7378C124.455 39.9605 124.476 40.163 124.498 40.3453H120.106C120.106 39.2518 120.393 38.3 120.965 37.49C121.559 36.6598 122.366 36.0118 123.384 35.546C124.402 35.0803 125.537 34.8474 126.789 34.8474C128.062 34.8474 129.196 35.0904 130.194 35.5764C131.191 36.0421 131.976 36.7205 132.548 37.6115C133.142 38.4823 133.439 39.5251 133.439 40.7401V51.2499ZM124.466 51.5536C123.384 51.5536 122.429 51.3511 121.602 50.9461C120.796 50.5411 120.17 49.9944 119.724 49.3059C119.279 48.5971 119.056 47.8074 119.056 46.9366C119.056 45.9849 119.289 45.1546 119.756 44.4459C120.244 43.7169 120.891 43.16 121.697 42.7753C122.525 42.3703 123.447 42.1678 124.466 42.1678H130.13L130.066 42.5626H126.789C125.75 42.5626 124.922 42.9474 124.307 43.7169C123.713 44.4661 123.416 45.4381 123.416 46.6329C123.416 47.7264 123.66 48.6174 124.148 49.3059C124.635 49.9944 125.335 50.3386 126.248 50.3386C126.82 50.3386 127.319 50.1868 127.744 49.883C128.189 49.5793 128.529 49.154 128.762 48.6073C129.017 48.0605 129.144 47.4328 129.144 46.724H129.589C129.589 48.2023 129.123 49.3768 128.189 50.2475C127.277 51.1183 126.036 51.5536 124.466 51.5536Z" fill="black"/>
</g>
<defs>
<clipPath id="clip0_4346_20347">
<rect width="88" height="24" fill="white" transform="translate(46 28)"/>
</clipPath>
</defs>
</svg>
