<svg width="180" height="80" viewBox="0 0 180 80" fill="none" xmlns="http://www.w3.org/2000/svg">
<path fill-rule="evenodd" clip-rule="evenodd" d="M30.1323 31.8019C29.8165 31.0047 30.4051 30.1433 31.2664 30.1433H36.6139C37.1163 30.1433 37.5613 30.4423 37.748 30.905L42.0043 41.5259C42.1192 41.8107 42.1192 42.131 42.0043 42.4229L39.327 49.093C38.9179 50.111 37.468 50.111 37.0589 49.093L30.1323 31.8019ZM40.4608 31.7664C40.1737 30.9762 40.7622 30.1433 41.6092 30.1433H46.2676C46.7844 30.1433 47.2438 30.4636 47.416 30.9406L51.2848 41.5615C51.3781 41.8249 51.3781 42.1168 51.2848 42.3873L48.9592 48.7727C48.5717 49.8404 47.05 49.8404 46.6624 48.7727L40.4608 31.7664ZM50.9188 30.1433C50.0574 30.1433 49.4689 31.0047 49.7847 31.8019L56.7112 49.093C57.1204 50.111 58.5703 50.111 58.9794 49.093L61.6567 42.4229C61.7715 42.131 61.7715 41.8107 61.6567 41.5259L57.4003 30.905C57.2137 30.4423 56.7686 30.1433 56.2662 30.1433H50.9188Z" fill="url(#paint0_linear_4346_20348)"/>
<path fill-rule="evenodd" clip-rule="evenodd" d="M86.9643 31.9194C85.9635 31.9194 85.1429 32.7305 85.1429 33.7646C85.1429 34.7784 85.9635 35.5895 86.9643 35.5895C87.9651 35.5895 88.7857 34.7784 88.7857 33.7646C88.7857 32.7305 87.9651 31.9194 86.9643 31.9194ZM88.5655 36.5222H85.383V47.4512H88.5655V36.5222ZM66.8083 32.325H69.9108V36.5222H72.2927V39.4421H69.9108V43.2946C69.9108 43.8623 70.3511 44.3084 70.8915 44.3084H72.2727V47.4107H70.8915C68.6498 47.4107 66.8083 45.5656 66.8083 43.2743V39.4218H65.3672V36.502H66.8083V32.325ZM79.8786 36.2789C78.4375 36.2789 77.2966 36.8872 76.8562 37.8402V32.325H73.6738V47.431H76.8562V41.3075C76.8562 40.0301 77.6769 39.1379 78.8379 39.1379C80.0188 39.1379 80.6793 39.9084 80.6793 41.2061V47.4513H83.8618V40.8006C83.8618 37.9619 82.4207 36.2789 79.8786 36.2789ZM93.109 36.502V38.0024C93.5894 36.9075 94.7503 36.2789 96.2115 36.2586C96.4317 36.2586 96.7119 36.2789 97.0522 36.3195V39.3609C96.7319 39.3001 96.3716 39.2596 95.9913 39.2596C94.1699 39.2596 93.109 40.2936 93.109 42.0983V47.431H89.9265V36.502H93.109ZM105.999 37.9416C105.679 36.9886 104.418 36.3195 102.797 36.3195C101.276 36.3195 99.9945 36.8669 98.9737 37.9619C97.9729 39.0365 97.4526 40.3951 97.4526 41.9766C97.4526 43.5582 97.9729 44.8965 98.9737 46.0116C99.9945 47.0863 101.276 47.6338 102.797 47.6338C104.418 47.6338 105.679 46.9646 105.999 46.0116V47.4513H109.182V32.325H105.999V37.9416ZM105.359 43.9232C104.818 44.4504 104.158 44.6937 103.377 44.6937C102.617 44.6937 101.956 44.4301 101.436 43.9232C100.895 43.3757 100.635 42.7269 100.635 41.9766C100.635 41.2264 100.895 40.5776 101.436 40.0503C101.976 39.5029 102.617 39.2393 103.377 39.2393C104.178 39.2393 104.838 39.5029 105.359 40.0503C105.919 40.5776 106.199 41.2264 106.199 41.9766C106.199 42.7269 105.919 43.3757 105.359 43.9232ZM118.369 36.5627L121.251 41.7535L123.193 36.5222H126.315L121.872 48.0798L118.369 41.7941L114.866 48.0798L110.443 36.5222H113.565L115.487 41.7535L118.369 36.5627ZM131.559 36.2586C129.918 36.2586 128.537 36.7858 127.456 37.8402C126.395 38.8743 125.855 40.2531 125.855 41.9563V42.0577C125.855 43.761 126.395 45.1398 127.456 46.1739C128.557 47.1877 129.958 47.7149 131.72 47.7149C133.361 47.7149 134.702 47.3905 135.723 46.7213V43.9029C134.722 44.6126 133.441 44.9573 131.9 44.9573C130.218 44.9573 129.117 44.1259 129.057 42.8282H136.964C137.004 42.5038 137.024 42.1388 137.024 41.7739C137.024 40.2126 136.503 38.9149 135.502 37.8605C134.502 36.7858 133.161 36.2586 131.559 36.2586ZM129.057 40.7397C129.078 40.2328 129.337 39.807 129.818 39.4623C130.318 39.1176 130.879 38.9352 131.559 38.9352C132.82 38.9352 133.801 39.7665 133.801 40.7397H129.057ZM144.61 36.3195C146.131 36.3195 147.412 36.8669 148.413 37.9619C149.434 39.0568 149.954 40.3748 149.954 41.9563C149.954 43.5379 149.434 44.8762 148.413 45.9914C147.412 47.0661 146.131 47.6135 144.61 47.6135C142.989 47.6135 141.728 46.9444 141.407 45.9914V47.431H138.225V32.325H141.407V37.9416C141.728 36.9886 142.989 36.3195 144.61 36.3195ZM144.029 44.6937C144.79 44.6937 145.43 44.4504 145.971 43.9232C146.511 43.3757 146.771 42.7269 146.771 41.9766C146.771 41.2264 146.511 40.5776 145.971 40.0503C145.451 39.5029 144.79 39.2393 144.029 39.2393C143.248 39.2393 142.588 39.5029 142.028 40.0503C141.487 40.5776 141.207 41.2264 141.207 41.9766C141.207 42.7269 141.487 43.3757 142.028 43.9232C142.568 44.4301 143.229 44.6937 144.029 44.6937Z" fill="black"/>
<defs>
<linearGradient id="paint0_linear_4346_20348" x1="43.2491" y1="30.1433" x2="52.093" y2="49.8562" gradientUnits="userSpaceOnUse">
<stop stop-color="#636363"/>
<stop offset="1"/>
</linearGradient>
</defs>
</svg>
