<svg width="180" height="80" viewBox="0 0 180 80" fill="none" xmlns="http://www.w3.org/2000/svg">
<g clip-path="url(#clip0_4132_21472)">
<path d="M136.778 51.3299L135.996 52.0838C134.941 51.9753 133.795 52.3311 132.761 51.7823L128.441 39.7141V51.2817L127.584 52.0778C126.514 51.9541 125.311 52.3793 124.211 51.6526V28.9758C125.305 28.2279 126.514 28.7134 127.629 28.5234C128.588 29.6301 128.798 31.0112 129.277 32.2657C129.957 34.0408 130.612 35.8271 131.244 37.6243C131.664 38.8064 132.024 40.0127 132.41 41.2068C132.449 41.1856 132.485 41.1603 132.518 41.1314C132.551 41.0978 132.572 41.0544 132.578 41.0078C132.578 36.9941 132.578 32.9834 132.578 28.9969C133.687 28.246 134.893 28.6742 136.005 28.5476L136.775 29.3075L136.778 51.3299Z" fill="black"/>
<path d="M104.652 51.6393C103.527 52.3194 102.34 51.9403 101.181 52.0637C100.373 51.3234 100.154 50.2852 99.787 49.3343C99.3216 48.1307 99.0595 46.8187 98.5108 45.6421C97.962 44.4655 97.7739 43.1505 97.0893 41.998C96.6392 41.2397 96.5344 40.2888 96.1272 39.4523V51.6213C95.4993 51.9057 94.8197 52.0665 94.1276 52.0943C93.4354 52.1223 92.7447 52.0167 92.0945 51.7838V28.845C93.3358 28.3964 94.7043 28.4179 95.9298 28.9052C97.369 32.8111 98.7942 36.7049 100.206 40.5867C100.246 40.5726 100.283 40.5534 100.318 40.5296C100.354 40.4986 100.38 40.4561 100.388 40.4092C100.388 36.7471 100.388 33.0879 100.388 29.3114L101.313 28.5711C102.343 28.6915 103.53 28.2853 104.662 28.9864L104.652 51.6393Z" fill="black"/>
<path d="M73.0109 48.8449C72.5896 50.4467 71.7465 51.2763 70.0756 51.7771C67.7502 52.3593 64.9405 51.946 62.0949 52.0787L61.3745 51.1948V29.2334L62.3549 28.5245C62.1218 28.5818 62.2114 28.5395 62.3041 28.5395C64.0975 28.5395 65.891 28.5033 67.6844 28.5395C68.5811 28.5637 69.5555 28.5607 70.3745 28.8744C71.2473 29.2062 72.2576 29.5682 72.6013 30.6844C72.7176 30.9716 72.8545 31.2499 73.0109 31.517V39.0346C72.6581 39.4207 72.2636 39.8521 71.8571 40.3016C72.2128 40.7058 72.6255 41.1734 73.0109 41.6048V48.8449ZM65.5861 32.79V38.1627H68.7037C68.8232 38.0421 69.0175 37.9365 69.0205 37.8309C69.0384 36.2592 69.0205 34.6845 69.0205 33.1189L68.6947 32.79H65.5861ZM69.1251 42.6666C67.8996 42.181 66.7129 42.4736 65.5831 42.4615V47.8131H68.6977L69.1251 47.3938V42.6666Z" fill="black"/>
<path d="M89.1715 52.0961C88.1233 51.9783 86.9439 52.3621 85.776 51.67C85.5373 50.3794 85.2896 49.0223 85.0029 47.4777C84.759 47.3681 84.5002 47.2957 84.2354 47.2631C82.8977 47.2359 81.5478 47.2631 80.2311 47.2631C79.4161 48.7563 79.8131 50.5879 78.8515 52.0508H75.6147C75.537 51.8272 75.3163 51.5128 75.3401 51.2197C75.4183 50.4128 75.5491 49.6121 75.7311 48.8228C75.961 47.7679 76.2775 46.7312 76.5046 45.6763C76.6541 44.9721 76.6238 44.2225 76.8388 43.5454C77.0329 42.9228 76.9464 42.2064 77.4095 41.6715C77.2303 40.3838 77.8749 39.2323 78.0662 38.0051C78.2096 36.8857 78.4647 35.7838 78.8277 34.7166C79.0428 34.1423 79.0786 33.4139 79.1978 32.755C79.3174 32.0961 79.2429 31.3283 79.5655 30.8024C79.8876 30.2765 79.6521 29.8352 79.9593 29.1279L80.6761 28.5234H84.4416L85.1491 29.4544C85.3246 30.6307 85.5647 31.7962 85.8687 32.9454C85.9562 33.3144 86.0251 33.6876 86.0749 34.0637C86.1493 34.4295 86.2959 34.7801 86.3732 35.1488C86.4928 35.8077 86.3732 36.6329 86.7288 37.0984C87.1826 37.7029 86.6301 38.4222 87.2036 38.8786C87.2036 40.0876 87.7561 41.1879 87.8785 42.3757C87.9381 42.9439 87.9292 43.5847 88.2039 44.0441C88.6307 44.7454 88.4249 45.5312 88.7354 46.2445C88.9951 46.8491 88.774 47.6954 89.1147 48.185C89.5537 48.8167 89.2102 49.4938 89.5686 50.1345C89.7501 50.4542 89.8101 50.8302 89.7371 51.1915C89.664 51.5528 89.4624 51.8746 89.1715 52.0961ZM82.3303 35.17C81.8108 38.0444 81.3151 40.7919 80.8134 43.5545H84.1488C83.6471 40.7254 83.1513 37.9356 82.6556 35.1518L82.3303 35.17Z" fill="black"/>
<path d="M111.919 28.8731C113.56 28.4018 115.303 28.407 116.942 28.8882C118.589 36.4523 120.236 44.0103 121.884 51.5623C120.798 52.3941 119.576 51.948 118.327 52.0987L117.665 51.1736L116.912 47.2951H111.919C111.679 48.6271 111.436 49.9802 111.19 51.3544C110.972 51.5804 110.727 51.8335 110.5 52.0746H107.866L106.989 51.6256C108.625 44.0796 110.261 36.5246 111.919 28.8731ZM116.153 43.5944C115.572 40.5296 115.013 37.5673 114.426 34.4754L112.708 43.5944H116.153Z" fill="black"/>
<path d="M154 51.516L153.407 52.09C152.286 51.9661 151.106 52.3468 150.028 51.7577C149.414 50.3167 149.555 48.6793 148.855 47.2534H144.173L143.89 47.6099C143.633 48.9844 143.387 50.2986 143.141 51.6006C142.158 52.3407 141.027 52.0235 139.956 52.0598C139.7 52.0196 139.456 51.9292 139.237 51.7939C138.88 50.6973 139.341 49.7729 139.544 48.8575C139.636 48.4829 139.658 48.1084 139.74 47.7367C139.823 47.3652 139.962 47.0208 140.048 46.6522C140.376 45.0753 140.616 43.4742 141.049 41.9244C141.267 41.1451 141.357 40.3505 141.578 39.5772C141.903 38.3959 142.109 37.1845 142.413 35.9943C142.717 34.804 142.892 33.6712 143.122 32.5051C143.23 31.9432 143.184 31.2967 143.467 30.8405C143.805 30.3088 143.675 29.8043 143.743 29.2545L144.526 28.5234H148.52L149.202 29.2666C150.716 36.7374 152.535 44.1509 154 51.516ZM146.321 35.1756L144.785 43.5739H148.203C147.69 40.7463 147.184 37.9549 146.667 35.1756H146.321Z" fill="black"/>
<path fill-rule="evenodd" clip-rule="evenodd" d="M28.6623 44.442C27.8152 43.9658 27.0332 43.6053 26.1442 44.5298C25.4041 48.288 27.5824 50.8258 30.4636 52.0184C33.0608 53.1001 35.8536 53.3128 38.6463 53.3128C41.1326 53.3426 43.5941 52.8192 45.8501 51.781C48.1061 50.7427 50.0994 49.2159 51.6837 47.3126C53.9365 44.7517 54.6765 41.5944 54.9418 38.3124C55.0908 36.2091 54.5462 34.2815 52.8985 32.8392C53.0958 31.9149 53.3619 31.0064 53.6944 30.1211C54.1412 29.3445 54.6535 28.6068 55.2258 27.9162C54.7325 27.5417 54.1335 27.3299 53.5129 27.3106C52.8915 27.288 52.2783 27.4576 51.7581 27.796C51.6014 28.2915 51.4769 28.7767 51.3621 29.2441L51.3299 29.2478C50.9988 29.5888 50.7056 29.9358 50.4269 30.2656C49.8594 30.9371 49.3525 31.5371 48.7094 31.8688C47.4715 32.4834 46.3589 33.3203 45.4279 34.3373C42.4071 37.6933 37.4268 37.6194 34.257 36.2326C32.5767 35.5068 31.4643 34.1801 30.4729 32.7333C30.0679 32.1416 29.6723 31.6423 28.7786 31.9705C27.0378 34.2171 27.6289 36.6163 29.1417 38.3497C30.5241 39.9214 32.2835 40.9615 34.1453 41.886C35.788 42.7264 37.5997 43.1901 39.4468 43.2429C41.294 43.2957 43.1295 42.9363 44.8182 42.1911C44.9053 42.1549 44.9914 42.1175 45.0763 42.0789C42.4469 44.861 38.5686 46.2789 35.3462 46.4158C32.8514 46.5222 30.7336 45.6023 28.6623 44.442ZM47.7033 37.4529C48.1902 35.7627 48.9715 34.1711 50.0111 32.7501C50.0101 32.7515 50.0091 32.7529 50.008 32.7543C50.1488 32.4641 50.3245 32.1906 50.5321 31.9401C50.74 31.5226 50.8945 31.058 51.0321 30.5585L50.959 30.635C50.7139 30.8915 50.4693 31.1476 50.2081 31.3927C50.1472 31.4499 50.0834 31.5103 50.0174 31.5727C49.7156 31.8581 49.3683 32.1866 49.0398 32.4559C48.6949 32.7321 48.3261 32.9887 47.9576 33.2452L47.9576 33.2452C47.222 33.7571 46.4872 34.2684 45.9446 34.9336C43.1518 38.3775 35.807 39.02 32.2416 35.7333C31.6111 35.1051 31.0175 34.4414 30.4636 33.7456C30.429 33.7059 30.3951 33.6653 30.3613 33.6248C30.0759 33.283 29.8 32.9525 29.2673 33.3203C29.1742 34.9567 30.0633 36.6209 31.5946 37.8644C32.9648 38.9519 34.551 39.7396 36.2492 40.1757C40.0938 41.1788 43.7244 40.9985 46.8476 38.2573C47.1414 37.9974 47.4297 37.7306 47.7033 37.4529ZM52.2981 29.2752L52.8147 29.4139L52.838 29.4046C52.8055 29.5909 52.7777 29.7782 52.7498 29.9659C52.6898 30.3697 52.6295 30.7758 52.5215 31.1797C52.1921 32.2636 52.2133 33.4228 52.582 34.4941C53.35 36.847 52.6844 39.1445 51.7907 41.3356C49.6822 46.5129 45.4047 48.8935 40.1544 49.9752C37.8391 50.4652 35.4459 50.4652 33.1306 49.9752C30.4962 49.3882 28.4202 47.9043 27.5452 45.8704C27.9661 45.1088 28.4989 45.3441 29.0502 45.5875C29.1146 45.6159 29.1793 45.6445 29.2441 45.6716C30.3354 46.1809 31.4542 46.63 32.5954 47.0168C38.9023 48.8658 47.3596 43.7208 48.6768 37.8779C48.9351 36.747 49.5156 35.6884 50.0974 34.6276C50.386 34.1013 50.6749 33.5745 50.925 33.038C51.2039 32.484 51.4077 31.9131 51.6125 31.3398C51.6469 31.2433 51.6814 31.1468 51.7162 31.0503C51.8774 30.6179 52.0132 30.1831 52.1499 29.7457C52.1988 29.5892 52.2478 29.4324 52.2981 29.2752ZM53.5674 30.4698L53.592 30.4589L53.5798 30.4349L53.5674 30.4698Z" fill="black"/>
</g>
<defs>
<clipPath id="clip0_4132_21472">
<rect width="128" height="28" fill="white" transform="translate(26 26)"/>
</clipPath>
</defs>
</svg>
