<svg width="48" height="48" viewBox="0 0 48 48" fill="none" xmlns="http://www.w3.org/2000/svg">
<rect width="48" height="48" fill="#EEEEEE"/>
<path d="M21.3267 14.749C21.4493 14.5189 21.6372 14.3277 21.8681 14.1982C22.0991 14.0686 22.3635 14.0061 22.6299 14.018H27.8243C28.1879 14.0227 28.5353 14.165 28.7924 14.4148C29.0496 14.6645 29.1961 15.0019 29.2009 15.3551C29.1979 15.5651 29.1478 15.772 29.0541 15.9613L25.842 22.0405H29.6414C29.8213 22.0405 29.9995 22.0752 30.1655 22.1426C30.3315 22.21 30.482 22.3088 30.6084 22.4332C30.7347 22.5576 30.8344 22.7052 30.9016 22.8673C30.9687 23.0294 31.0021 23.2029 30.9997 23.3776C31.0075 23.7075 30.8824 24.0274 30.6509 24.269L21.804 33.8247C21.6737 33.9477 21.4992 34.0166 21.3176 34.0166C21.1359 34.0166 20.9614 33.9477 20.8312 33.8247C20.7472 33.752 20.683 33.6602 20.6446 33.5575C20.6062 33.4548 20.5946 33.3445 20.6109 33.2364L21.7122 24.6612H18.4267C18.1922 24.6695 17.9595 24.6195 17.7506 24.5158C17.5416 24.4122 17.3634 24.2584 17.2329 24.0691C17.1023 23.8798 17.0237 23.6612 17.0046 23.4341C16.9855 23.207 17.0264 22.9789 17.1235 22.7715L21.3267 14.749Z" stroke="black" stroke-width="2" stroke-linecap="round" stroke-linejoin="round"/>
</svg>
